<svg xmlns="http://www.w3.org/2000/svg" width="160" height="228" viewBox="0 0 160 228">
    <g fill="none" fill-rule="evenodd">
        <g>
            <path fill="#49F876" d="M156.398 151.26c-33.111-.582-61.141-22.316-71.134-52.24l-5.26-2.656-5.356 2.73C64.635 128.98 36.624 150.677 3.54 151.26V3.096c35.648.628 65.407 25.771 73.108 59.258l.631-1.348 2.673-5.712 2.701 5.699.64 1.35c7.705-33.481 37.46-58.62 73.105-59.247V151.26zm-45.783.035c-2.44-1.743-8.447-6.553-14.41-15.36-1.054-1.56-2.14-3.299-3.223-5.216h8.76c9.673 9.701 21.838 16.91 35.444 20.576h-26.571zM82.05 97.914c3.635 11.912 10.003 22.638 18.38 31.447h-8.2c-4.141-7.67-8.139-18.034-10.18-31.447zm8.718 31.447h-9.78V99.754c2.035 12.151 5.69 21.927 9.78 29.607zm-9.78 21.934v-20.576H91.52c6.192 11.113 13.15 17.621 16.865 20.576H80.988zm-2.04-21.934h-9.703c3.901-7.381 7.625-17.123 9.704-29.506v29.506zm0 21.934H51.605c3.003-2.355 8.076-6.967 13.206-14.528 1.21-1.785 2.46-3.8 3.702-6.048H78.95v20.576zm-19.442-21.934c8.366-8.797 14.73-19.508 18.366-31.402-2.002 13.09-5.908 23.421-10.25 31.402h-8.116zm-36.755 21.934c13.606-3.666 25.772-10.875 35.444-20.576h8.68c-6.93 12.18-14.71 18.519-17.561 20.576H22.752zM49.325 3.061c2.44 1.744 8.446 6.554 14.407 15.361 1.056 1.559 2.141 3.298 3.225 5.215h-8.761c-9.672-9.7-21.838-16.91-35.444-20.576h26.573zm28.561 53.383c-3.634-11.914-10.002-22.64-18.379-31.447h8.201c4.14 7.67 8.138 18.034 10.178 31.447zM69.17 24.997h10.12v31.629c-1.954-13.108-5.801-23.524-10.12-31.63zM79.289 3.06v20.576H68.417c-6.191-11.112-13.15-17.62-16.864-20.576H79.29zm1.36 21.936h10.043c-4.124 7.802-8.051 18.242-10.044 31.654V24.997zm0-21.936h27.685c-3.002 2.356-8.075 6.968-13.207 14.529-1.21 1.784-2.46 3.8-3.701 6.047H80.648V3.061zm19.783 21.936c-8.367 8.796-14.73 19.506-18.366 31.4 2.001-13.09 5.907-23.421 10.25-31.4h8.116zM137.186 3.06c-13.606 3.667-25.771 10.875-35.443 20.576h-8.68c6.93-12.178 14.709-18.519 17.56-20.576h26.563zM.822 154.014h158.294V.343H.822v153.67z" transform="translate(0 .389)"/>
            <g fill="#FFF">
                <path d="M1.953 59.445L2.613 57.492 3.273 59.445 5.226 60.105 3.273 60.765 2.613 62.717 1.953 60.765 0 60.105zM29.201 86.445L29.861 84.492 30.521 86.445 32.474 87.105 30.521 87.765 29.861 89.718 29.201 87.765 27.248 87.105zM41.697 54.831L42.357 52.879 43.017 54.831 44.971 55.491 43.017 56.151 42.357 58.104 41.697 56.151 39.744 55.491zM12.557 4.68L13.217 2.727 13.877 4.68 15.83 5.34 13.877 6 13.217 7.952 12.557 6 10.604 5.34zM12.873 114.594L13.533 112.64 14.194 114.594 16.146 115.254 14.194 115.913 13.533 117.866 12.873 115.913 10.92 115.254zM19.319 83.221L19.673 82.17 20.028 83.221 21.079 83.576 20.028 83.93 19.673 84.981 19.319 83.93 18.268 83.576zM38.128 60.451L38.483 59.4 38.838 60.451 39.888 60.806 38.838 61.16 38.483 62.211 38.128 61.16 37.078 60.806zM22.289 32.731L22.643 31.68 22.998 32.731 24.049 33.086 22.998 33.441 22.643 34.491 22.289 33.441 21.238 33.086zM130.198 11.941L130.553 10.89 130.909 11.941 131.959 12.296 130.909 12.651 130.553 13.701 130.198 12.651 129.147 12.296zM42.444 20.363L42.799 19.313 43.155 20.363 44.205 20.718 43.155 21.073 42.799 22.124 42.444 21.073 41.393 20.718zM8.428 1.051L8.783 0 9.138 1.051 10.189 1.406 9.138 1.761 8.783 2.812 8.428 1.761 7.378 1.406zM130.663 111.629L131.323 109.676 131.983 111.629 133.936 112.289 131.983 112.949 131.323 114.901 130.663 112.949 128.71 112.289zM120.209 98.444L120.869 96.491 121.529 98.444 123.482 99.104 121.529 99.763 120.869 101.716 120.209 99.763 118.256 99.104zM98.806 27.919L99.466 25.966 100.127 27.919 102.08 28.579 100.127 29.238 99.466 31.191 98.806 29.238 96.853 28.579zM127.77 50.894L128.43 48.94 129.091 50.894 131.044 51.553 129.091 52.213 128.43 54.166 127.77 52.213 125.817 51.553zM134.457 8.058L135.117 6.105 135.777 8.058 137.73 8.718 135.777 9.378 135.117 11.331 134.457 9.378 132.503 8.718zM114.657 74.388L115.316 72.435 115.977 74.388 117.929 75.048 115.977 75.708 115.316 77.661 114.657 75.708 112.704 75.048zM102.478 34.711L102.833 33.66 103.189 34.711 104.239 35.066 103.189 35.42 102.833 36.471 102.478 35.42 101.427 35.066zM95.548 62.431L95.903 61.38 96.258 62.431 97.308 62.786 96.258 63.141 95.903 64.192 95.548 63.141 94.498 62.786zM19.733 36.14L20.088 35.089 20.443 36.14 21.493 36.495 20.443 36.85 20.088 37.901 19.733 36.85 18.682 36.495zM127.228 99.061L127.583 98.01 127.939 99.061 128.989 99.416 127.939 99.771 127.583 100.821 127.228 99.771 126.177 99.416zM104.458 22.831L104.813 21.78 105.168 22.831 106.218 23.186 105.168 23.541 104.813 24.592 104.458 23.541 103.408 23.186zM123.268 105.001L123.623 103.95 123.978 105.001 125.028 105.356 123.978 105.711 123.623 106.761 123.268 105.711 122.217 105.356z" transform="translate(0 .389) translate(9.348 17.782)"/>
            </g>
        </g>
        <g fill="#FFF">
            <path d="M34.882 2.677L57.528 2.677 57.528 9.542 42.318 9.542 42.318 16.408 56.384 16.408 56.384 23.274 42.318 23.274 42.318 36.433 34.882 36.433zM62.057 36.433L69.209 36.433 69.209.389 62.057.389zM74.455 36.433h7.152V13.262h-7.152v23.171zm-.574-30.467c0-1.144.407-2.121 1.217-2.931.81-.812 1.789-1.216 2.933-1.216s2.121.404 2.931 1.216c.81.81 1.216 1.787 1.216 2.931 0 1.144-.407 2.121-1.216 2.934-.81.81-1.787 1.216-2.93 1.216-1.145 0-2.124-.406-2.934-1.216-.81-.813-1.217-1.79-1.217-2.934zM93.047 24.704c0 .762.143 1.487.43 2.17.287.684.69 1.287 1.216 1.813.525.522 1.128.944 1.81 1.263.685.316 1.44.475 2.265.475.796 0 1.543-.16 2.244-.475.698-.319 1.308-.74 1.835-1.263.524-.526.928-1.129 1.215-1.814.286-.682.43-1.407.43-2.169s-.144-1.484-.43-2.169c-.287-.682-.69-1.288-1.215-1.81-.527-.526-1.137-.948-1.835-1.265-.701-.318-1.448-.477-2.244-.477-.826 0-1.58.16-2.265.477-.682.317-1.285.739-1.81 1.265-.526.522-.93 1.128-1.216 1.81-.287.685-.43 1.407-.43 2.17zm18.024 9.775c0 4.386-1.105 7.715-3.313 9.988-2.212 2.272-5.573 3.409-10.087 3.409-2.065 0-4.098-.231-6.1-.69-2.005-.462-3.847-1.36-5.533-2.695l3.958-5.913c1.113.922 2.28 1.654 3.505 2.193 1.223.542 2.567.813 4.03.813 2.193 0 3.804-.534 4.837-1.599 1.032-1.064 1.55-2.423 1.55-4.077v-2.24h-.095c-.826 1.114-1.85 1.9-3.074 2.36-1.224.461-2.377.692-3.457.692-1.718 0-3.276-.295-4.673-.882-1.398-.589-2.6-1.414-3.6-2.479-1-1.065-1.773-2.328-2.312-3.791-.541-1.463-.81-3.066-.81-4.816 0-1.527.244-3.019.738-4.482.491-1.462 1.192-2.75 2.098-3.862.906-1.112 2.01-2.01 3.313-2.692 1.303-.685 2.782-1.028 4.433-1.028 1.017 0 1.95.115 2.79.335.842.223 1.599.51 2.265.858.67.35 1.24.74 1.718 1.167.476.43.858.853 1.144 1.264h.096v-3.05h6.579v21.217zM123.944.389v16.019h.095c.157-.443.428-.89.81-1.335.382-.444.842-.842 1.384-1.193.538-.348 1.173-.634 1.905-.857.73-.22 1.527-.335 2.384-.335 1.811 0 3.274.28 4.386.837 1.113.555 1.98 1.327 2.6 2.312.618.985 1.04 2.145 1.264 3.48.222 1.335.334 2.783.334 4.339v12.777h-7.152V25.086c0-.669-.025-1.359-.072-2.073-.048-.717-.191-1.375-.43-1.98-.239-.603-.603-1.097-1.097-1.477-.494-.382-1.2-.573-2.121-.573-.92 0-1.67.167-2.24.501-.574.333-1.01.778-1.312 1.334-.302.557-.502 1.186-.595 1.884-.096.698-.143 1.431-.143 2.193v11.538h-7.152V.39h7.152zM159.938 18.983h-6.292v7.723c0 .637.03 1.216.096 1.742.06.522.204.977.427 1.359.224.38.566.674 1.026.882.46.206 1.071.31 1.836.31.38 0 .882-.04 1.5-.12.622-.08 1.088-.263 1.407-.549v5.96c-.793.286-1.62.477-2.48.573-.857.095-1.698.144-2.524.144-1.21 0-2.323-.128-3.34-.383s-1.906-.66-2.668-1.215c-.764-.556-1.36-1.28-1.789-2.17-.427-.889-.642-1.97-.642-3.241V18.983h-4.578v-5.721h4.578V6.396h7.151v6.866h6.292v5.721zM29.15 16.4c0 1.367-.436 2.455-1.309 3.265-.871.81-1.935 1.216-3.19 1.216-.758 0-1.498-.096-2.23-.284-.731-.188-1.363-.377-1.897-.565-.252.172-.621.55-1.107 1.13-.488.582-1.038 1.29-1.652 2.125.567 2.405 1.02 4.115 1.366 5.129.345 1.014.674 2.039.987 3.077.266.828.662 1.473 1.18 1.94.517.468 1.335.7 2.452.7.41 0 .918-.076 1.532-.235.614-.157 1.118-.314 1.51-.47l-.517 2.134c-1.556.664-2.918 1.147-4.08 1.447-1.164.3-2.199.452-3.112.452-.658 0-1.312-.064-1.957-.19-.643-.127-1.232-.352-1.765-.684-.585-.345-1.075-.778-1.476-1.295-.401-.52-.74-1.243-1.025-2.172-.19-.581-.364-1.24-.52-1.98-.16-.739-.316-1.392-.476-1.957-.456.674-.786 1.179-.99 1.508-.205.331-.504.794-.897 1.391-1.242 1.903-2.32 3.26-3.23 4.07-.914.81-2.005 1.213-3.28 1.213-.958 0-1.776-.321-2.453-.966C.34 35.753 0 34.912 0 33.876c0-1.398.438-2.503 1.311-3.315.873-.81 1.941-1.214 3.2-1.214.756 0 1.48.09 2.174.271.693.18 1.346.382 1.96.603.235-.189.602-.56 1.098-1.11.497-.55 1.036-1.235 1.62-2.052-.523-2.105-.95-3.693-1.285-4.762-.332-1.071-.672-2.133-1.022-3.187-.282-.838-.69-1.49-1.227-1.95-.533-.46-1.335-.691-2.405-.691-.47 0-.998.085-1.58.25-.581.164-1.07.318-1.463.459l.52-2.135c1.414-.631 2.754-1.107 4.017-1.423 1.267-.316 2.324-.475 3.173-.475.77 0 1.428.056 1.978.165.552.11 1.133.345 1.747.709.562.344 1.053.78 1.47 1.308.417.526.76 1.246 1.028 2.156.191.63.366 1.282.526 1.959.16.678.294 1.259.405 1.745.33-.502.672-1.023 1.025-1.556.353-.534.656-1.006.909-1.416 1.21-1.903 2.294-3.268 3.252-4.09.958-.826 2.043-1.24 3.255-1.24.99 0 1.813.327 2.474.98.661.653.99 1.497.99 2.535" transform="translate(0 179.852)"/>
        </g>
        <path fill="#FFF" d="M99.099 102.09L79.972 92.433 61.021 102.09 79.943 61.663z"/>
    </g>
</svg>