<svg xmlns="http://www.w3.org/2000/svg" width="160" height="228" fill="none" viewBox="0 0 160 228">
    <path fill="#1B1B1B" d="M3 2.389H157V154.389H3z"/>
    <path fill="#49FF5E" fill-rule="evenodd" d="M156.398 151.649c-33.111-.582-61.142-22.316-71.134-52.24l-5.26-2.656-5.356 2.729c-10.014 29.887-38.024 51.585-71.108 52.167V3.484c35.648.628 65.407 25.772 73.108 59.259l.63-1.348 2.674-5.713 2.7 5.7.64 1.35c7.705-33.481 37.461-58.62 73.106-59.248V151.65zm-45.784.035c-2.439-1.743-8.446-6.553-14.409-15.36-1.055-1.56-2.14-3.299-3.223-5.216h8.76c9.672 9.701 21.837 16.909 35.443 20.576h-26.571zM82.051 98.302c3.634 11.913 10.003 22.639 18.381 31.447H92.23c-4.14-7.67-8.138-18.034-10.18-31.447zm8.718 31.447h-9.78v-29.606c2.035 12.151 5.689 21.927 9.78 29.606zm-9.78 21.935v-20.576H91.52c6.192 11.112 13.149 17.621 16.865 20.576H80.988zm-2.04-21.935h-9.703c3.901-7.381 7.625-17.122 9.703-29.505v29.505zm0 21.935H51.604c3.003-2.355 8.075-6.968 13.206-14.528 1.21-1.785 2.46-3.801 3.701-6.048H78.95v20.576zm-19.442-21.935c8.365-8.797 14.729-19.507 18.365-31.401-2.001 13.09-5.907 23.421-10.25 31.401h-8.115zm-36.755 21.935c13.606-3.667 25.771-10.875 35.443-20.576h8.68c-6.93 12.179-14.709 18.519-17.56 20.576H22.751zM49.325 3.45c2.44 1.744 8.446 6.554 14.407 15.36 1.056 1.56 2.141 3.299 3.224 5.216h-8.76C48.522 14.325 36.357 7.116 22.751 3.45h26.573zm28.561 53.382c-3.634-11.913-10.003-22.639-18.38-31.447h8.202c4.14 7.67 8.138 18.034 10.178 31.447zm-8.718-31.447h10.12v31.63c-1.953-13.108-5.8-23.525-10.12-31.63zM79.288 3.45v20.576H68.418C62.225 12.913 55.267 6.405 51.553 3.45h27.736zm1.36 21.935h10.044c-4.125 7.802-8.051 18.243-10.044 31.654V25.385zm0-21.935h27.686c-3.002 2.356-8.076 6.967-13.207 14.528-1.21 1.784-2.46 3.801-3.701 6.048H80.647V3.45zm19.784 21.935c-8.367 8.797-14.73 19.507-18.367 31.401 2.002-13.09 5.908-23.421 10.25-31.4h8.117zM137.185 3.45c-13.606 3.666-25.771 10.875-35.443 20.576h-8.68c6.93-12.179 14.709-18.519 17.561-20.576h26.562zM.821 154.402h158.294V.732H.821v153.67z" clip-rule="evenodd"/>
    <path fill="#fff" fill-rule="evenodd" d="M11.3 77.615l.66-1.952.66 1.953 1.953.66-1.953.66-.66 1.952-.66-1.952-1.953-.66 1.953-.66zM38.548 104.616l.66-1.953.66 1.953 1.952.66-1.953.66-.66 1.953-.66-1.953-1.952-.66 1.953-.66zM51.044 73.002l.66-1.952.66 1.952 1.953.66-1.953.66-.66 1.953-.66-1.953-1.953-.66 1.953-.66zM21.903 22.85l.66-1.952.66 1.953 1.954.66-1.953.66-.66 1.952-.66-1.952-1.954-.66 1.953-.66zM22.22 132.765l.66-1.953.66 1.953 1.952.66-1.952.659-.66 1.953-.66-1.953-1.953-.659 1.953-.66zM28.665 101.392l.354-1.051.356 1.051 1.05.355-1.05.354-.356 1.051-.354-1.051-1.05-.354 1.05-.355zM47.475 78.622l.355-1.051.355 1.05 1.05.356-1.05.355-.355 1.05-.355-1.05-1.051-.355 1.05-.355zM31.636 50.902l.354-1.05.356 1.05 1.05.355-1.05.355-.356 1.05-.354-1.05-1.051-.355 1.05-.355zM139.545 30.111l.355-1.05.356 1.05 1.05.355-1.05.355-.356 1.051-.355-1.05-1.051-.356 1.051-.355zM51.791 38.534l.355-1.05.356 1.05 1.05.355-1.05.355-.356 1.05-.355-1.05-1.05-.355 1.05-.355zM17.775 19.222l.355-1.051.355 1.05 1.051.356-1.05.355-.356 1.05-.355-1.05-1.05-.355 1.05-.355zM140.01 129.799l.659-1.953.66 1.953 1.953.66-1.953.66-.66 1.953-.659-1.953-1.953-.66 1.953-.66zM129.556 116.615l.66-1.953.66 1.953 1.953.66-1.953.659-.66 1.953-.66-1.953-1.953-.659 1.953-.66zM108.153 46.09l.66-1.953.66 1.953 1.954.66-1.954.66-.66 1.952-.66-1.953-1.953-.66 1.953-.66zM137.117 69.064l.66-1.953.66 1.953 1.953.66-1.953.66-.66 1.953-.66-1.953-1.953-.66 1.953-.66zM143.804 26.229l.66-1.953.66 1.953 1.953.66-1.953.66-.66 1.953-.66-1.954-1.953-.66 1.953-.659zM124.004 92.559l.659-1.953.661 1.953 1.952.66-1.952.66-.661 1.953-.659-1.953-1.953-.66 1.953-.66zM111.825 52.881l.355-1.05.356 1.05 1.05.355-1.05.355-.356 1.051-.355-1.05-1.051-.356 1.051-.355zM104.895 80.602l.355-1.051.354 1.05 1.051.356-1.051.355-.354 1.05-.355-1.05-1.051-.355 1.051-.355zM29.08 54.311l.355-1.05.355 1.05 1.05.355-1.05.355-.355 1.05-.355-1.05-1.05-.355 1.05-.355zM136.574 117.232l.355-1.051.356 1.051 1.05.354-1.05.355-.356 1.051-.355-1.051-1.051-.355 1.051-.354zM113.805 41.002l.354-1.05.356 1.05 1.05.355-1.05.355-.356 1.05-.354-1.05-1.051-.355 1.051-.355zM132.615 123.172l.355-1.051.355 1.051 1.05.355-1.05.355-.355 1.051-.355-1.051-1.051-.355 1.051-.355zM34.882 182.529h22.646v6.866h-15.21v6.865h14.066v6.866H42.318v13.16h-7.436v-33.757zM62.058 216.286h7.151v-36.045h-7.151v36.045zM74.456 216.286h7.151v-23.172h-7.151v23.172zm-.574-30.467c0-1.145.406-2.122 1.216-2.932.81-.811 1.79-1.215 2.934-1.215 1.144 0 2.12.404 2.93 1.215.81.81 1.216 1.787 1.216 2.932 0 1.144-.406 2.121-1.215 2.934-.81.809-1.787 1.215-2.931 1.215-1.145 0-2.124-.406-2.934-1.215-.81-.813-1.216-1.79-1.216-2.934zM93.047 204.557c0 .762.142 1.486.43 2.169.286.685.69 1.287 1.215 1.813.526.523 1.129.945 1.81 1.263.686.316 1.44.476 2.265.476.797 0 1.543-.16 2.244-.476.699-.318 1.309-.74 1.835-1.263.525-.526.929-1.128 1.216-1.813.286-.683.43-1.407.43-2.169 0-.763-.144-1.484-.43-2.169-.287-.682-.691-1.288-1.216-1.811-.526-.526-1.136-.947-1.835-1.264-.701-.318-1.447-.477-2.244-.477-.825 0-1.58.159-2.264.477-.682.317-1.285.738-1.81 1.264-.527.523-.93 1.129-1.217 1.811-.287.685-.43 1.406-.43 2.169zm18.024 9.775c0 4.386-1.105 7.715-3.314 9.987-2.211 2.273-5.572 3.409-10.086 3.409-2.065 0-4.099-.23-6.101-.69-2.004-.462-3.846-1.36-5.532-2.694l3.958-5.913c1.113.921 2.28 1.654 3.504 2.193 1.224.541 2.567.812 4.03.812 2.194 0 3.805-.533 4.837-1.598 1.033-1.065 1.55-2.424 1.55-4.078v-2.24h-.094c-.826 1.114-1.851 1.9-3.075 2.36-1.224.462-2.376.693-3.456.693-1.718 0-3.276-.295-4.673-.882-1.399-.589-2.6-1.415-3.6-2.479-1.001-1.065-1.774-2.329-2.312-3.792-.542-1.463-.81-3.066-.81-4.816 0-1.526.244-3.018.738-4.481.49-1.463 1.192-2.75 2.097-3.862.906-1.113 2.01-2.011 3.314-2.693 1.303-.685 2.782-1.027 4.433-1.027 1.017 0 1.95.114 2.79.334.842.224 1.598.51 2.265.858.67.35 1.24.741 1.717 1.168.476.43.858.853 1.145 1.264h.096v-3.051h6.579v21.218zM123.944 180.241v16.02h.096c.156-.444.427-.89.809-1.336.383-.443.842-.841 1.384-1.192.538-.348 1.173-.634 1.905-.858.731-.22 1.527-.334 2.384-.334 1.812 0 3.274.279 4.386.836 1.113.555 1.981 1.328 2.599 2.312.619.986 1.042 2.146 1.265 3.481.222 1.335.334 2.782.334 4.338v12.778h-7.152v-11.347c0-.669-.024-1.359-.072-2.073-.048-.717-.191-1.375-.429-1.981-.24-.602-.603-1.096-1.097-1.476-.494-.382-1.201-.573-2.122-.573-.92 0-1.67.167-2.24.501-.574.332-1.009.778-1.312 1.333-.302.557-.502 1.187-.595 1.885-.096.698-.143 1.431-.143 2.193v11.538h-7.152v-36.045h7.152zM159.938 198.836h-6.292v7.723c0 .637.029 1.215.096 1.742.061.522.204.977.427 1.358.223.38.566.674 1.025.882.461.207 1.072.311 1.837.311.38 0 .881-.04 1.5-.12.622-.079 1.088-.263 1.407-.549v5.959c-.793.287-1.62.478-2.479.574-.858.095-1.7.144-2.525.144-1.21 0-2.323-.128-3.34-.383s-1.906-.661-2.668-1.216c-.765-.555-1.36-1.28-1.789-2.169-.428-.889-.643-1.97-.643-3.242v-11.014h-4.577v-5.721h4.577v-6.866h7.152v6.866h6.292v5.721zM29.15 196.253c0 1.367-.436 2.455-1.309 3.265-.871.81-1.935 1.216-3.19 1.216-.758 0-1.498-.096-2.23-.284-.731-.189-1.363-.377-1.897-.565-.252.172-.621.549-1.107 1.13-.488.582-1.038 1.29-1.652 2.125.567 2.405 1.02 4.114 1.366 5.129.345 1.014.674 2.038.987 3.077.266.827.662 1.473 1.18 1.94.517.467 1.335.701 2.452.701.41 0 .918-.077 1.532-.236.614-.157 1.118-.314 1.51-.47l-.517 2.134c-1.556.664-2.918 1.147-4.08 1.447-1.164.3-2.199.452-3.112.452-.658 0-1.312-.064-1.957-.189-.643-.128-1.232-.353-1.765-.685-.585-.345-1.075-.778-1.476-1.296-.401-.52-.74-1.242-1.025-2.171-.19-.581-.364-1.24-.52-1.981-.16-.738-.316-1.391-.476-1.956-.456.674-.786 1.178-.99 1.508-.205.331-.504.794-.897 1.391-1.242 1.903-2.32 3.26-3.23 4.07-.914.809-2.005 1.213-3.28 1.213-.958 0-1.776-.322-2.453-.966C.34 215.606 0 214.765 0 213.729c0-1.398.438-2.503 1.311-3.315.873-.81 1.941-1.214 3.2-1.214.756 0 1.48.09 2.174.271.693.181 1.346.382 1.96.603.235-.189.602-.561 1.098-1.11.497-.55 1.036-1.235 1.62-2.052-.523-2.105-.95-3.693-1.285-4.763-.332-1.07-.672-2.132-1.022-3.186-.282-.838-.69-1.49-1.227-1.951-.533-.459-1.335-.69-2.405-.69-.47 0-.998.084-1.58.249-.581.165-1.07.319-1.463.46l.52-2.135c1.414-.631 2.754-1.107 4.017-1.423 1.267-.316 2.324-.475 3.173-.475.77 0 1.428.055 1.978.164.552.112 1.133.346 1.747.71.562.344 1.053.78 1.47 1.308.417.525.76 1.245 1.028 2.156.191.629.366 1.282.526 1.959.16.677.294 1.258.405 1.744.33-.502.672-1.022 1.025-1.555.353-.534.656-1.007.909-1.416 1.21-1.903 2.294-3.268 3.252-4.09.958-.827 2.043-1.241 3.255-1.241.99 0 1.813.327 2.474.98.661.654.99 1.498.99 2.536zM99.1 102.09l-19.127-9.657-18.951 9.657 18.921-40.427L99.1 102.09z" clip-rule="evenodd"/>
</svg>