<svg xmlns="http://www.w3.org/2000/svg" viewBox="0 0 548.73 548.03"><defs><style>.cls-1{fill:#fff;}</style></defs><g id="Layer_2" data-name="Layer 2"><path d="M0,0V548.47H548.47V0ZM363.89,376.87l-58.05-29.81L305.51,358l-.89,29.53-19.19-10-21,22.76-24.75-29h-.06l-27.67,5.21-6.81-34.83,0,0-51.46-18.77-13.59-5,29.55-39.51,7.67-10.25-21.14-37.36,53.38-20,3.69-1.38h0l8.27-50.21,22.59,28.14h0l27.64-24.1,8.51-7.42,22.15,39.11,6.38,11.26,39.54,7.47-19.88,44.84v0l12.34,2.9,41.33,9.67-38.16,55.64Z"/><polygon class="cls-1" points="244.07 187.35 244.06 187.36 221.47 159.22 213.2 209.43 248.21 244.87 244.07 187.35"/><polygon class="cls-1" points="232.11 298.84 217.98 328.05 246.75 310.93 259.71 282.99 232.11 298.84"/><polygon class="cls-1" points="246.75 310.93 217.98 328.05 205.12 341.73 211.93 376.56 239.6 371.35 250.4 358.31 246.75 310.93"/><polygon class="cls-1" points="250.4 358.31 239.6 371.35 239.66 371.34 264.41 400.31 285.43 377.55 267.19 340.1 250.4 358.31"/><polygon class="cls-1" points="250.4 358.31 267.18 340.11 246.75 310.98 250.4 358.31"/><polygon class="cls-1" points="282.11 301.95 262.67 285.49 259.71 282.99 246.75 310.93 246.75 310.98 267.18 340.11 278.45 327.88 282.11 301.95"/><polygon class="cls-1" points="320.57 298.46 282.11 301.95 305.84 347.06 363.89 376.87 343.92 326.75 320.57 298.46"/><polygon class="cls-1" points="308.75 206.2 299.29 254.73 328.42 258.51 348.29 213.67 308.75 206.2"/><polygon class="cls-1" points="205.1 341.69 205.12 341.73 205.12 341.7 205.1 341.69"/><polygon class="cls-1" points="217.15 242.59 172.2 243.24 177.27 268.2 206.62 286.76 217.15 242.59 217.15 242.59"/><polygon class="cls-1" points="217.15 242.59 206.62 286.76 259.71 282.99 217.15 242.59"/><polygon class="cls-1" points="281.75 217.15 259.71 282.99 299.29 254.73 308.75 206.2 281.75 217.15"/><polygon class="cls-1" points="248.05 244.71 213.2 209.43 217.15 242.59 259.71 282.99 248.05 244.71"/><polygon class="cls-1" points="206.62 286.76 185.22 304.11 232.11 298.84 259.71 282.99 206.62 286.76"/><polygon class="cls-1" points="206.62 286.76 177.27 268.2 169.6 278.45 140.05 317.96 185.22 304.11 206.62 286.76"/><polygon class="cls-1" points="185.22 304.11 140.05 317.96 153.64 322.92 205.1 341.69 205.12 341.7 205.12 341.73 217.98 328.05 232.11 298.84 185.22 304.11"/><polygon class="cls-1" points="302.37 194.94 280.22 155.83 271.19 194.54 281.75 217.15 308.75 206.2 302.37 194.94"/><polygon class="cls-1" points="280.22 155.83 271.71 163.25 244.07 187.35 271.19 194.54 280.22 155.83"/><polygon class="cls-1" points="271.19 194.54 244.07 187.35 248.21 244.87 248.05 244.71 259.71 282.99 281.75 217.15 271.19 194.54"/><polygon class="cls-1" points="217.15 242.59 213.2 209.43 213.2 209.43 209.51 210.81 156.13 230.84 172.2 243.24 217.15 242.59 217.15 242.59"/><polygon class="cls-1" points="177.27 268.2 172.2 243.24 156.13 230.84 177.27 268.2"/><polygon class="cls-1" points="328.41 258.54 328.42 258.51 328.4 258.54 328.41 258.54"/><polygon class="cls-1" points="340.75 261.44 328.41 258.54 320.57 298.46 343.92 326.75 382.08 271.11 340.75 261.44"/><polygon class="cls-1" points="282.11 301.95 320.57 298.46 259.71 282.99 282.11 301.95"/><polygon class="cls-1" points="328.42 258.51 299.29 254.73 259.71 282.99 320.57 298.46 328.41 258.54 328.4 258.54 328.42 258.51"/><polygon class="cls-1" points="305.84 347.06 282.11 301.95 278.45 327.88 286.82 344.35 305.84 347.06"/><polygon class="cls-1" points="278.45 327.88 267.19 340.1 285.43 377.55 286.82 344.35 278.45 327.88"/><polygon class="cls-1" points="286.82 344.35 285.43 377.55 304.62 387.53 305.51 358 305.84 347.06 286.82 344.35"/></g></svg>